<?xml version="1.0" standalone="no"?>
<!DOCTYPE svg PUBLIC "-//W3C//DTD SVG 20010904//EN"
 "http://www.w3.org/TR/2001/REC-SVG-20010904/DTD/svg10.dtd">
<svg version="1.0" xmlns="http://www.w3.org/2000/svg"
 width="3600.000000pt" height="900.000000pt" viewBox="0 0 3600.000000 900.000000"
 preserveAspectRatio="xMidYMid meet">

<g transform="translate(0.000000,900.000000) scale(0.100000,-0.100000)"
fill="#000000" stroke="none">
<path d="M4125 7743 c-52 -11 -144 -48 -180 -73 -58 -40 -120 -106 -149 -161
-20 -36 -236 -646 -236 -665 0 -2 -200 -4 -445 -4 l-445 0 0 113 c0 87 -5 121
-19 152 -22 49 -63 91 -113 116 -35 18 -68 19 -638 19 -647 0 -632 1 -696 -53
-57 -48 -74 -101 -74 -231 l0 -114 -237 -4 c-221 -3 -242 -5 -296 -27 -175
-69 -293 -212 -328 -395 -5 -27 -9 -248 -9 -491 0 -369 3 -450 15 -493 17 -57
62 -115 106 -138 l29 -15 0 -1234 c0 -814 -3 -1235 -10 -1235 -19 0 -91 -73
-113 -114 -22 -40 -22 -50 -25 -502 -3 -504 1 -554 54 -662 52 -106 168 -208
290 -254 l59 -23 3835 0 3835 0 59 23 c122 46 238 148 290 254 53 108 57 158
54 662 -3 452 -3 462 -25 502 -22 41 -94 114 -113 114 -7 0 -10 421 -10 1235
l0 1234 29 15 c45 24 89 82 106 140 14 47 16 120 13 528 l-3 473 -27 69 c-50
129 -133 223 -250 282 -108 55 -93 54 -1005 54 -464 0 -843 1 -843 3 0 19
-218 634 -237 669 -34 62 -125 148 -191 182 -114 58 -84 56 -1102 55 -514 -1
-944 -3 -955 -6z m4226 -1129 c67 -31 114 -78 149 -146 l30 -61 0 -462 c0
-345 -3 -464 -12 -473 -9 -9 -180 -12 -708 -12 l-697 0 -65 83 c-292 368 -696
654 -1138 805 -280 95 -507 133 -810 133 -303 0 -529 -37 -810 -133 -276 -94
-554 -249 -779 -436 -117 -97 -292 -277 -371 -380 l-55 -72 -1295 0 c-995 0
-1299 3 -1308 12 -9 9 -12 128 -12 473 l0 460 24 50 c42 90 100 143 189 171
34 10 734 12 3832 11 l3790 -2 46 -21z m-3020 -494 c163 -16 164 -14 -43 -116
-101 -50 -500 -274 -887 -498 -387 -223 -706 -406 -709 -406 -5 0 3 132 23
370 l14 165 38 33 c73 63 259 181 388 246 356 178 754 248 1176 206z m590
-150 c388 -160 732 -445 965 -800 96 -147 239 -440 214 -440 -5 0 -85 51 -177
113 -92 61 -481 293 -863 514 -382 220 -696 405 -697 410 -3 8 451 231 473
232 6 1 44 -13 85 -29z m-2457 -642 c-16 -127 -24 -498 -24 -1193 0 -443 -4
-805 -8 -805 -9 0 -239 152 -364 241 -85 60 -80 51 -98 204 -50 451 61 941
304 1334 67 107 173 251 186 251 5 0 7 -15 4 -32z m3384 -720 c42 -28 141 -96
218 -150 l142 -99 12 -77 c6 -42 14 -145 17 -228 18 -479 -134 -956 -430
-1351 -34 -46 -65 -83 -70 -83 -4 0 -5 17 -2 38 17 124 25 490 25 1198 0 442
2 804 5 804 3 0 41 -23 83 -52z m-3556 -1475 c107 -71 498 -303 871 -518 372
-214 675 -393 674 -397 -4 -13 -454 -228 -476 -228 -29 0 -213 82 -318 142
-377 215 -672 528 -859 913 -59 120 -98 215 -89 215 2 0 91 -57 197 -127z
m3213 -355 c-4 -57 -13 -177 -21 -267 -16 -192 3 -163 -189 -292 -147 -99
-360 -205 -520 -258 -232 -77 -521 -119 -738 -107 -119 7 -271 23 -295 31 -8
3 71 47 175 99 103 51 501 274 883 495 382 220 698 401 703 401 5 0 6 -46 2
-102z m-3475 -208 c251 -369 645 -699 1043 -872 661 -287 1380 -286 2029 3
400 178 776 488 1023 842 l60 86 661 1 c555 0 663 -2 673 -14 9 -10 11 -138 9
-482 -3 -465 -3 -469 -26 -511 -32 -60 -86 -111 -151 -142 l-56 -26 -3795 0
-3795 0 -56 26 c-65 31 -119 82 -151 142 -23 42 -23 46 -26 511 -2 344 0 472
9 482 10 12 203 14 1260 14 l1248 0 41 -60z"/>
<path d="M7125 6536 c-85 -27 -152 -83 -193 -160 -27 -51 -27 -52 -30 -299 -4
-294 2 -326 74 -406 26 -29 70 -64 98 -79 l51 -27 540 0 540 0 50 27 c60 32
114 87 146 148 23 43 24 55 27 295 3 235 2 255 -18 307 -27 74 -87 140 -158
175 l-57 28 -515 2 c-395 2 -524 -1 -555 -11z m1028 -200 c18 -7 41 -23 52
-36 19 -21 20 -36 20 -246 l0 -224 -33 -32 -32 -33 -481 -3 c-536 -3 -532 -3
-564 64 -14 29 -16 66 -13 244 l3 209 29 30 c16 16 38 32 50 34 11 2 227 5
479 6 366 1 464 -2 490 -13z"/>
<path d="M13125 7743 c-52 -11 -144 -48 -180 -73 -58 -40 -120 -106 -149 -161
-20 -36 -236 -646 -236 -665 0 -2 -200 -4 -445 -4 l-445 0 0 113 c0 87 -5 121
-19 152 -22 49 -63 91 -113 116 -35 18 -68 19 -638 19 -647 0 -632 1 -696 -53
-57 -48 -74 -101 -74 -231 l0 -114 -237 -4 c-221 -3 -242 -5 -296 -27 -175
-69 -293 -212 -328 -395 -5 -27 -9 -248 -9 -491 0 -369 3 -450 15 -493 17 -57
62 -115 106 -138 l29 -15 0 -1234 c0 -814 -3 -1235 -10 -1235 -19 0 -91 -73
-113 -114 -22 -40 -22 -50 -25 -502 -3 -504 1 -554 54 -662 52 -106 168 -208
290 -254 l59 -23 3835 0 3835 0 59 23 c122 46 238 148 290 254 53 108 57 158
54 662 -3 452 -3 462 -25 502 -22 41 -94 114 -113 114 -7 0 -10 421 -10 1235
l0 1234 29 15 c45 24 89 82 106 140 14 47 16 120 13 528 l-3 473 -27 69 c-50
129 -133 223 -250 282 -108 55 -93 54 -1005 54 -464 0 -843 1 -843 3 0 19
-218 634 -237 669 -34 62 -125 148 -191 182 -114 58 -84 56 -1102 55 -514 -1
-944 -3 -955 -6z m4226 -1129 c67 -31 114 -78 149 -146 l30 -61 0 -462 c0
-345 -3 -464 -12 -473 -9 -9 -180 -12 -708 -12 l-697 0 -65 83 c-292 368 -696
654 -1138 805 -280 95 -507 133 -810 133 -303 0 -529 -37 -810 -133 -276 -94
-554 -249 -779 -436 -117 -97 -292 -277 -371 -380 l-55 -72 -1295 0 c-995 0
-1299 3 -1308 12 -9 9 -12 128 -12 473 l0 460 24 50 c42 90 100 143 189 171
34 10 734 12 3832 11 l3790 -2 46 -21z m-2966 -500 c146 -20 266 -48 400 -95
141 -48 209 -79 199 -88 -5 -5 -36 -18 -69 -31 -361 -140 -737 -330 -1333
-673 -293 -169 -539 -310 -548 -314 -13 -5 -14 5 -9 73 18 224 48 507 71 659
13 93 27 189 31 213 5 39 10 45 54 67 336 171 805 244 1204 189z m989 -403
c405 -306 671 -701 795 -1181 30 -118 67 -328 58 -336 -2 -3 -87 57 -189 133
-101 76 -237 175 -303 220 -66 44 -163 110 -215 146 -82 56 -564 340 -1022
603 -76 44 -138 82 -138 85 0 10 355 179 540 256 147 62 354 142 369 143 8 0
55 -31 105 -69z m-2514 -3 c0 -13 -9 -90 -19 -173 -57 -438 -71 -727 -71
-1422 0 -326 -3 -593 -6 -593 -8 0 -400 276 -494 349 -111 86 -274 216 -292
234 -11 12 -12 32 -6 108 43 469 264 938 605 1285 76 77 260 233 276 234 4 0
7 -10 7 -22z m2673 -1310 c206 -138 509 -364 652 -484 l51 -43 -9 -93 c-42
-466 -261 -936 -596 -1281 -96 -100 -285 -257 -295 -246 -2 2 2 47 10 99 21
150 52 476 69 714 11 157 15 386 15 808 0 323 2 588 5 588 3 0 47 -28 98 -62z
m-3448 -685 c130 -100 346 -254 525 -373 85 -57 157 -106 160 -110 3 -4 243
-144 535 -313 291 -168 530 -309 532 -314 1 -4 -19 -18 -45 -30 -26 -11 -123
-57 -217 -101 -186 -86 -358 -160 -533 -228 l-113 -44 -60 41 c-429 291 -761
796 -864 1314 -33 169 -42 253 -24 239 8 -6 55 -42 104 -81z m3089 -715 c-19
-238 -48 -509 -74 -690 -17 -114 -30 -211 -30 -216 0 -29 -364 -161 -546 -197
-417 -85 -892 -37 -1254 127 l-65 29 110 45 c416 171 756 344 1340 683 275
160 506 291 513 291 9 0 11 -18 6 -72z m-3144 -428 c251 -369 645 -699 1043
-872 661 -287 1380 -286 2029 3 400 178 776 488 1023 842 l60 86 661 1 c555 0
663 -2 673 -14 9 -10 11 -138 9 -482 -3 -465 -3 -469 -26 -511 -32 -60 -86
-111 -151 -142 l-56 -26 -3795 0 -3795 0 -56 26 c-65 31 -119 82 -151 142 -23
42 -23 46 -26 511 -2 344 0 472 9 482 10 12 203 14 1260 14 l1248 0 41 -60z"/>
<path d="M16125 6536 c-85 -27 -152 -83 -193 -160 -27 -51 -27 -52 -30 -299
-4 -294 2 -326 74 -406 26 -29 70 -64 98 -79 l51 -27 540 0 540 0 50 27 c60
32 114 87 146 148 23 43 24 55 27 295 3 235 2 255 -18 307 -27 74 -87 140
-158 175 l-57 28 -515 2 c-395 2 -524 -1 -555 -11z m1028 -200 c18 -7 41 -23
52 -36 19 -21 20 -36 20 -246 l0 -224 -33 -32 -32 -33 -481 -3 c-536 -3 -532
-3 -564 64 -14 29 -16 66 -13 244 l3 209 29 30 c16 16 38 32 50 34 11 2 227 5
479 6 366 1 464 -2 490 -13z"/>
<path d="M22125 7743 c-52 -11 -144 -48 -180 -73 -58 -40 -120 -106 -149 -161
-20 -36 -236 -646 -236 -665 0 -2 -200 -4 -445 -4 l-445 0 0 113 c0 87 -5 121
-19 152 -22 49 -63 91 -113 116 -35 18 -68 19 -638 19 -647 0 -632 1 -696 -53
-57 -48 -74 -101 -74 -231 l0 -114 -237 -4 c-221 -3 -242 -5 -296 -27 -175
-69 -293 -212 -328 -395 -5 -27 -9 -248 -9 -491 0 -369 3 -450 15 -493 17 -57
62 -115 106 -138 l29 -15 0 -1234 c0 -814 -3 -1235 -10 -1235 -19 0 -91 -73
-113 -114 -22 -40 -22 -50 -25 -502 -3 -504 1 -554 54 -662 52 -106 168 -208
290 -254 l59 -23 3835 0 3835 0 59 23 c122 46 238 148 290 254 53 108 57 158
54 662 -3 452 -3 462 -25 502 -22 41 -94 114 -113 114 -7 0 -10 421 -10 1235
l0 1234 29 15 c45 24 89 82 106 140 14 47 16 120 13 528 l-3 473 -27 69 c-50
129 -133 223 -250 282 -108 55 -93 54 -1005 54 -464 0 -843 1 -843 3 0 19
-218 634 -237 669 -34 62 -125 148 -191 182 -114 58 -84 56 -1102 55 -514 -1
-944 -3 -955 -6z m4226 -1129 c67 -31 114 -78 149 -146 l30 -61 0 -462 c0
-345 -3 -464 -12 -473 -9 -9 -180 -12 -708 -12 l-697 0 -68 87 c-290 365 -694
650 -1135 801 -280 95 -507 133 -810 133 -303 0 -529 -37 -810 -133 -276 -94
-554 -249 -779 -436 -117 -97 -292 -277 -371 -380 l-55 -72 -1295 0 c-995 0
-1299 3 -1308 12 -9 9 -12 128 -12 473 l0 460 24 50 c42 90 100 143 189 171
34 10 734 12 3832 11 l3790 -2 46 -21z m-3086 -488 c325 -15 716 -148 1008
-343 133 -89 173 -122 156 -127 -8 -3 -69 -21 -137 -41 -371 -109 -782 -274
-1142 -458 -80 -41 -286 -156 -457 -255 -172 -100 -317 -182 -322 -182 -6 0
-8 20 -6 48 42 446 92 752 186 1127 22 88 45 165 52 172 30 28 397 75 522 66
17 -1 80 -4 140 -7z m-948 -178 c-3 -18 -22 -100 -41 -183 -72 -303 -133 -729
-156 -1080 -5 -88 -10 -341 -10 -562 0 -222 -2 -403 -6 -403 -17 0 -311 214
-464 338 -244 199 -590 520 -590 549 0 8 16 58 36 111 181 490 509 878 959
1134 101 58 249 128 269 128 5 0 6 -15 3 -32z m2482 -658 c292 -387 441 -827
441 -1301 0 -97 -17 -308 -26 -318 -1 -2 -61 50 -132 116 -255 236 -574 490
-852 678 -63 43 -124 85 -136 94 -11 9 -181 108 -377 221 -196 113 -357 207
-357 210 0 9 339 160 503 224 222 87 627 219 762 248 28 6 72 -37 174 -172z
m-3656 -1119 c424 -389 782 -646 1362 -979 182 -105 328 -194 325 -198 -17
-30 -522 -241 -795 -332 -141 -48 -462 -142 -482 -142 -6 0 -41 36 -78 80
-256 300 -425 662 -491 1054 -22 133 -29 399 -14 539 7 64 14 117 17 117 2 0
73 -63 156 -139z m3054 28 c257 -180 505 -382 766 -627 216 -202 201 -168 141
-329 -46 -126 -136 -305 -206 -413 -226 -351 -586 -653 -957 -804 l-63 -25 4
27 c3 15 21 99 41 187 47 209 81 393 106 585 47 350 53 452 58 963 3 273 9
497 14 497 4 0 48 -28 96 -61z m-363 -981 c-40 -437 -89 -737 -181 -1111 -39
-161 -49 -190 -68 -197 -11 -4 -82 -18 -156 -31 -174 -30 -497 -32 -654 -5
-268 46 -513 131 -729 253 -80 45 -270 175 -280 192 -3 4 65 30 152 56 286 88
617 213 877 333 272 125 370 177 695 365 184 107 338 193 341 191 4 -2 5 -23
3 -46z m-2804 -648 c251 -369 645 -699 1043 -872 661 -287 1380 -286 2029 3
400 178 776 488 1023 842 l60 86 661 1 c555 0 663 -2 673 -14 9 -10 11 -138 9
-482 -3 -465 -3 -469 -26 -511 -32 -60 -86 -111 -151 -142 l-56 -26 -3795 0
-3795 0 -56 26 c-65 31 -119 82 -151 142 -23 42 -23 46 -26 511 -2 344 0 472
9 482 10 12 203 14 1260 14 l1248 0 41 -60z"/>
<path d="M25125 6536 c-85 -27 -152 -83 -193 -160 -27 -51 -27 -52 -30 -299
-4 -294 2 -326 74 -406 26 -29 70 -64 98 -79 l51 -27 540 0 540 0 50 27 c60
32 114 87 146 148 23 43 24 55 27 295 3 235 2 255 -18 307 -27 74 -87 140
-158 175 l-57 28 -515 2 c-395 2 -524 -1 -555 -11z m1028 -200 c18 -7 41 -23
52 -36 19 -21 20 -36 20 -246 l0 -224 -33 -32 -32 -33 -481 -3 c-536 -3 -532
-3 -564 64 -14 29 -16 66 -13 244 l3 209 29 30 c16 16 38 32 50 34 11 2 227 5
479 6 366 1 464 -2 490 -13z"/>
<path d="M31125 7743 c-52 -11 -144 -48 -180 -73 -58 -40 -120 -106 -149 -161
-20 -36 -236 -646 -236 -665 0 -2 -200 -4 -445 -4 l-445 0 0 113 c0 87 -5 121
-19 152 -22 49 -63 91 -113 116 -35 18 -68 19 -638 19 -647 0 -632 1 -696 -53
-57 -48 -74 -101 -74 -231 l0 -114 -237 -4 c-221 -3 -242 -5 -296 -27 -175
-69 -293 -212 -328 -395 -5 -27 -9 -248 -9 -491 0 -369 3 -450 15 -493 17 -57
62 -115 106 -138 l29 -15 0 -1234 c0 -814 -3 -1235 -10 -1235 -19 0 -91 -73
-113 -114 -22 -40 -22 -50 -25 -502 -3 -504 1 -554 54 -662 52 -106 168 -208
290 -254 l59 -23 3835 0 3835 0 59 23 c122 46 238 148 290 254 53 108 57 158
54 662 -3 452 -3 462 -25 502 -22 41 -94 114 -113 114 -7 0 -10 421 -10 1235
l0 1234 29 15 c45 24 89 82 106 140 14 47 16 120 13 528 l-3 473 -27 69 c-50
129 -133 223 -250 282 -108 55 -93 54 -1005 54 -464 0 -843 1 -843 3 0 19
-218 634 -237 669 -34 62 -125 148 -191 182 -114 58 -84 56 -1102 55 -514 -1
-944 -3 -955 -6z m4226 -1129 c67 -31 114 -78 149 -146 l30 -61 0 -462 c0
-345 -3 -464 -12 -473 -9 -9 -180 -12 -708 -12 l-697 0 -65 83 c-293 369 -695
653 -1138 805 -280 95 -507 133 -810 133 -303 0 -529 -37 -810 -133 -276 -94
-554 -249 -779 -436 -117 -97 -292 -277 -371 -380 l-55 -72 -1295 0 c-995 0
-1299 3 -1308 12 -9 9 -12 128 -12 473 l0 460 24 50 c42 90 100 143 189 171
34 10 734 12 3832 11 l3790 -2 46 -21z m-3058 -494 c5 -4 -20 -45 -56 -91
-210 -273 -376 -591 -493 -944 -96 -294 -141 -553 -151 -877 -3 -115 -8 -208
-11 -208 -2 0 -43 30 -91 67 -123 95 -382 358 -485 493 -192 251 -347 539
-451 837 l-18 52 36 44 c33 41 200 184 287 248 243 177 574 313 890 366 160
26 520 35 543 13z m541 -117 c39 -13 130 -53 201 -88 351 -170 647 -431 858
-755 61 -95 153 -267 146 -274 -2 -3 -49 2 -104 10 -142 21 -501 29 -665 15
-496 -44 -934 -188 -1389 -455 l-34 -20 7 70 c27 267 129 599 276 899 115 234
221 397 388 597 l64 76 90 -25 c50 -13 123 -36 162 -50z m-2430 -876 c206
-502 569 -968 1006 -1295 63 -47 131 -98 150 -112 19 -15 88 -57 153 -95 64
-37 117 -71 117 -75 0 -11 -130 -64 -254 -105 -471 -154 -1009 -186 -1481 -88
-37 8 -41 12 -57 60 -54 162 -83 410 -75 652 10 316 74 573 212 856 72 147
174 311 185 298 5 -4 24 -48 44 -96z m3533 -472 c65 -9 139 -21 165 -26 l46
-10 22 -82 c40 -147 60 -287 67 -468 13 -366 -58 -698 -218 -1018 -68 -137
-162 -291 -176 -291 -4 0 -17 21 -27 48 -259 649 -748 1217 -1342 1558 l-118
68 54 24 c442 194 1015 268 1527 197z m-1210 -754 c233 -188 463 -448 636
-721 97 -151 297 -587 297 -645 0 -17 -150 -158 -253 -239 -312 -244 -713
-398 -1130 -437 -121 -11 -361 -9 -373 4 -3 3 21 41 53 84 421 555 652 1230
653 1906 0 75 4 127 10 127 5 0 53 -36 107 -79z m-381 -423 c-4 -35 -18 -117
-31 -183 -95 -473 -304 -911 -620 -1299 l-70 -86 -40 6 c-73 11 -278 84 -400
143 -368 178 -640 411 -858 739 -76 113 -173 290 -164 299 3 3 72 -3 154 -13
174 -21 486 -23 668 -5 426 43 915 202 1265 410 47 28 89 51 94 51 5 0 6 -28
2 -62z m-2316 -908 c251 -369 645 -699 1043 -872 661 -287 1380 -286 2029 3
400 178 776 488 1023 842 l60 86 661 1 c555 0 663 -2 673 -14 9 -10 11 -138 9
-482 -3 -465 -3 -469 -26 -511 -32 -60 -86 -111 -151 -142 l-56 -26 -3795 0
-3795 0 -56 26 c-65 31 -119 82 -151 142 -23 42 -23 46 -26 511 -2 344 0 472
9 482 10 12 203 14 1260 14 l1248 0 41 -60z"/>
<path d="M34125 6536 c-85 -27 -152 -83 -193 -160 -27 -51 -27 -52 -30 -299
-4 -294 2 -326 74 -406 26 -29 70 -64 98 -79 l51 -27 540 0 540 0 50 27 c60
32 114 87 146 148 23 43 24 55 27 295 3 235 2 255 -18 307 -27 74 -87 140
-158 175 l-57 28 -515 2 c-395 2 -524 -1 -555 -11z m1028 -200 c18 -7 41 -23
52 -36 19 -21 20 -36 20 -246 l0 -224 -33 -32 -32 -33 -481 -3 c-536 -3 -532
-3 -564 64 -14 29 -16 66 -13 244 l3 209 29 30 c16 16 38 32 50 34 11 2 227 5
479 6 366 1 464 -2 490 -13z"/>
</g>
</svg>
